<svg width="3310" height="1410" viewBox="0 0 3310 1410" fill="none" xmlns="http://www.w3.org/2000/svg">
<g filter="url(#filter0_d_1_18)">
<rect x="100" y="291" width="828" height="828" rx="180" fill="white"/>
</g>
<mask id="mask0_1_18" style="mask-type:alpha" maskUnits="userSpaceOnUse" x="100" y="291" width="828" height="828">
<rect x="100" y="291" width="828" height="828" rx="180" fill="white"/>
</mask>
<g mask="url(#mask0_1_18)">
<g opacity="0.5" filter="url(#filter1_f_1_18)">
<circle cx="132" cy="1301" r="400" fill="#FF61FC"/>
</g>
</g>
<mask id="mask1_1_18" style="mask-type:alpha" maskUnits="userSpaceOnUse" x="100" y="291" width="828" height="828">
<rect x="100" y="291" width="828" height="828" rx="180" fill="white"/>
</mask>
<g mask="url(#mask1_1_18)">
<g opacity="0.6" filter="url(#filter2_f_1_18)">
<circle cx="896" cy="1301" r="400" fill="#1785FF"/>
</g>
</g>
<path d="M351.56 649.98C351.56 636.957 341.003 626.4 327.98 626.4C314.957 626.4 304.4 636.957 304.4 649.98V760.02C304.4 773.043 314.957 783.6 327.98 783.6C341.003 783.6 351.56 773.043 351.56 760.02V649.98Z" fill="#273A44"/>
<path d="M430.16 597.58C430.16 584.557 419.603 574 406.58 574C393.557 574 383 584.557 383 597.58V812.42C383 825.443 393.557 836 406.58 836C419.603 836 430.16 825.443 430.16 812.42V597.58Z" fill="#273A44"/>
<path d="M508.76 518.98C508.76 505.957 498.203 495.4 485.18 495.4C472.157 495.4 461.6 505.957 461.6 518.98V891.02C461.6 904.043 472.157 914.6 485.18 914.6C498.203 914.6 508.76 904.043 508.76 891.02V518.98Z" fill="#273A44"/>
<path d="M587.36 571.38C587.36 558.357 576.803 547.8 563.78 547.8C550.757 547.8 540.2 558.357 540.2 571.38V838.62C540.2 851.643 550.757 862.2 563.78 862.2C576.803 862.2 587.36 851.643 587.36 838.62V571.38Z" fill="#273A44"/>
<path d="M665.96 649.98C665.96 636.957 655.403 626.4 642.38 626.4C629.357 626.4 618.8 636.957 618.8 649.98V760.02C618.8 773.043 629.357 783.6 642.38 783.6C655.403 783.6 665.96 773.043 665.96 760.02V649.98Z" fill="#273A44"/>
<path d="M744.56 597.58C744.56 584.557 734.003 574 720.98 574C707.957 574 697.4 584.557 697.4 597.58V812.42C697.4 825.443 707.957 836 720.98 836C734.003 836 744.56 825.443 744.56 812.42V597.58Z" fill="#273A44"/>
<path d="M1279.4 877.56C1254.47 877.56 1233.19 873 1215.56 863.88C1197.93 854.76 1182.27 841.536 1168.59 824.208L1197.78 795.024C1207.81 809.008 1219.36 819.648 1232.43 826.944C1245.5 833.936 1261.62 837.432 1280.77 837.432C1299.62 837.432 1314.66 833.328 1325.91 825.12C1337.46 816.912 1343.24 805.664 1343.24 791.376C1343.24 779.52 1340.5 769.944 1335.03 762.648C1329.56 755.352 1322.11 749.424 1312.69 744.864C1303.57 740 1293.54 735.744 1282.59 732.096C1271.65 728.144 1260.7 724.04 1249.76 719.784C1238.82 715.224 1228.78 709.752 1219.66 703.368C1210.54 696.68 1203.1 688.016 1197.32 677.376C1191.85 666.736 1189.11 653.36 1189.11 637.248C1189.11 619.312 1193.37 604.112 1201.88 591.648C1210.7 578.88 1222.55 569.152 1237.45 562.464C1252.65 555.472 1269.67 551.976 1288.52 551.976C1309.19 551.976 1327.74 556.08 1344.15 564.288C1360.57 572.192 1373.94 582.68 1384.28 595.752L1355.1 624.936C1345.67 613.992 1335.49 605.784 1324.54 600.312C1313.9 594.84 1301.59 592.104 1287.61 592.104C1270.58 592.104 1257.06 595.904 1247.02 603.504C1236.99 610.8 1231.98 621.136 1231.98 634.512C1231.98 645.152 1234.71 653.816 1240.18 660.504C1245.96 666.888 1253.41 672.36 1262.53 676.92C1271.65 681.48 1281.68 685.736 1292.62 689.688C1303.87 693.336 1314.97 697.44 1325.91 702C1336.86 706.56 1346.89 712.336 1356.01 719.328C1365.13 726.32 1372.42 735.44 1377.9 746.688C1383.67 757.632 1386.56 771.464 1386.56 788.184C1386.56 816.152 1376.83 838.04 1357.38 853.848C1338.22 869.656 1312.23 877.56 1279.4 877.56ZM1474.88 873V565.656H1515.92V873H1474.88ZM1421.53 693.792V656.4H1569.27V693.792H1421.53ZM1699.47 877.56C1679.71 877.56 1661.77 872.696 1645.66 862.968C1629.55 852.936 1616.78 839.408 1607.36 822.384C1598.24 805.36 1593.68 786.208 1593.68 764.928C1593.68 743.648 1598.24 724.496 1607.36 707.472C1616.78 690.448 1629.4 676.92 1645.2 666.888C1661.32 656.856 1679.4 651.84 1699.47 651.84C1715.88 651.84 1730.48 655.336 1743.24 662.328C1756.32 669.016 1766.8 678.44 1774.71 690.6C1782.61 702.456 1787.02 716.288 1787.93 732.096V797.304C1787.02 812.808 1782.61 826.64 1774.71 838.8C1767.11 850.96 1756.77 860.536 1743.7 867.528C1730.93 874.216 1716.19 877.56 1699.47 877.56ZM1706.31 838.8C1726.68 838.8 1743.09 831.96 1755.56 818.28C1768.02 804.296 1774.25 786.512 1774.25 764.928C1774.25 750.032 1771.36 737.112 1765.59 726.168C1760.12 714.92 1752.21 706.256 1741.88 700.176C1731.54 693.792 1719.53 690.6 1705.85 690.6C1692.17 690.6 1680.01 693.792 1669.37 700.176C1659.04 706.56 1650.83 715.376 1644.75 726.624C1638.97 737.568 1636.08 750.184 1636.08 764.472C1636.08 779.064 1638.97 791.984 1644.75 803.232C1650.83 814.176 1659.19 822.84 1669.83 829.224C1680.47 835.608 1692.63 838.8 1706.31 838.8ZM1771.52 873V814.632L1779.27 761.736L1771.52 709.296V656.4H1813.01V873H1771.52ZM1967.15 968.304C1944.96 968.304 1925.2 964.2 1907.87 955.992C1890.85 947.784 1877.17 936.232 1866.83 921.336L1893.28 894.432C1902.1 905.68 1912.59 914.192 1924.75 919.968C1936.91 926.048 1951.35 929.088 1968.07 929.088C1990.26 929.088 2007.74 923.16 2020.51 911.304C2033.58 899.752 2040.11 884.096 2040.11 864.336V810.528L2047.41 761.736L2040.11 713.4V656.4H2081.15V864.336C2081.15 885.008 2076.29 903.096 2066.56 918.6C2057.14 934.104 2043.76 946.264 2026.43 955.08C2009.41 963.896 1989.65 968.304 1967.15 968.304ZM1967.15 869.352C1947.39 869.352 1929.61 864.64 1913.8 855.216C1898.3 845.792 1885.99 832.872 1876.87 816.456C1867.75 799.736 1863.19 781.04 1863.19 760.368C1863.19 739.696 1867.75 721.304 1876.87 705.192C1885.99 688.776 1898.3 675.856 1913.8 666.432C1929.61 656.704 1947.39 651.84 1967.15 651.84C1984.18 651.84 1999.23 655.184 2012.3 661.872C2025.37 668.56 2035.71 677.984 2043.31 690.144C2051.21 702 2055.47 715.984 2056.07 732.096V789.552C2055.16 805.36 2050.75 819.344 2042.85 831.504C2035.25 843.36 2024.91 852.632 2011.84 859.32C1998.77 866.008 1983.87 869.352 1967.15 869.352ZM1975.36 830.592C1988.74 830.592 2000.44 827.704 2010.47 821.928C2020.81 816.152 2028.71 808.096 2034.19 797.76C2039.66 787.12 2042.39 774.808 2042.39 760.824C2042.39 746.84 2039.51 734.68 2033.73 724.344C2028.26 713.704 2020.51 705.496 2010.47 699.72C2000.44 693.64 1988.59 690.6 1974.91 690.6C1961.23 690.6 1949.22 693.64 1938.88 699.72C1928.55 705.496 1920.34 713.704 1914.26 724.344C1908.48 734.68 1905.59 746.688 1905.59 760.368C1905.59 774.048 1908.48 786.208 1914.26 796.848C1920.34 807.488 1928.55 815.848 1938.88 821.928C1949.52 827.704 1961.68 830.592 1975.36 830.592ZM2246.27 877.56C2224.69 877.56 2205.23 872.696 2187.91 862.968C2170.58 852.936 2156.9 839.408 2146.87 822.384C2136.83 805.36 2131.82 786.056 2131.82 764.472C2131.82 743.192 2136.68 724.04 2146.41 707.016C2156.44 689.992 2169.82 676.616 2186.54 666.888C2203.56 656.856 2222.56 651.84 2243.54 651.84C2263.6 651.84 2281.23 656.4 2296.43 665.52C2311.94 674.64 2323.95 687.256 2332.46 703.368C2341.27 719.48 2345.68 737.72 2345.68 758.088C2345.68 761.128 2345.53 764.472 2345.23 768.12C2344.92 771.464 2344.31 775.416 2343.4 779.976H2160.55V745.776H2321.51L2306.47 759C2306.47 744.408 2303.88 732.096 2298.71 722.064C2293.55 711.728 2286.25 703.824 2276.83 698.352C2267.4 692.576 2256 689.688 2242.63 689.688C2228.64 689.688 2216.33 692.728 2205.69 698.808C2195.05 704.888 2186.84 713.4 2181.07 724.344C2175.29 735.288 2172.4 748.208 2172.4 763.104C2172.4 778.304 2175.44 791.68 2181.52 803.232C2187.6 814.48 2196.27 823.296 2207.51 829.68C2218.76 835.76 2231.68 838.8 2246.27 838.8C2258.43 838.8 2269.53 836.672 2279.56 832.416C2289.9 828.16 2298.71 821.776 2306.01 813.264L2332.46 840.168C2322.12 852.328 2309.35 861.6 2294.15 867.984C2279.26 874.368 2263.3 877.56 2246.27 877.56ZM2402.29 873V556.536H2445.15V873H2402.29ZM2431.47 873V833.784H2601.1V873H2431.47ZM2651.61 873V656.4H2692.65V873H2651.61ZM2672.13 613.08C2664.53 613.08 2658.3 610.648 2653.43 605.784C2648.57 600.616 2646.14 594.232 2646.14 586.632C2646.14 579.336 2648.57 573.256 2653.43 568.392C2658.3 563.224 2664.53 560.64 2672.13 560.64C2679.73 560.64 2685.96 563.224 2690.82 568.392C2695.69 573.256 2698.12 579.336 2698.12 586.632C2698.12 594.232 2695.69 600.616 2690.82 605.784C2685.96 610.648 2679.73 613.08 2672.13 613.08ZM2910.9 873V746.688C2910.9 730.272 2905.74 716.744 2895.4 706.104C2885.06 695.464 2871.69 690.144 2855.27 690.144C2844.33 690.144 2834.6 692.576 2826.09 697.44C2817.58 702.304 2810.89 708.992 2806.02 717.504C2801.16 726.016 2798.73 735.744 2798.73 746.688L2781.86 737.112C2781.86 720.696 2785.5 706.104 2792.8 693.336C2800.1 680.568 2810.28 670.536 2823.35 663.24C2836.42 655.64 2851.17 651.84 2867.58 651.84C2884 651.84 2898.44 655.944 2910.9 664.152C2923.67 672.36 2933.7 683.152 2941 696.528C2948.3 709.6 2951.94 723.584 2951.94 738.48V873H2910.9ZM2757.69 873V656.4H2798.73V873H2757.69ZM3150.69 873L3049.46 762.192L3149.78 656.4H3199.48L3087.76 773.136L3089.59 749.424L3203.59 873H3150.69ZM3012.07 873V547.416H3053.11V873H3012.07Z" fill="white"/>
<defs>
<filter id="filter0_d_1_18" x="82" y="287" width="864" height="864" filterUnits="userSpaceOnUse" color-interpolation-filters="sRGB">
<feFlood flood-opacity="0" result="BackgroundImageFix"/>
<feColorMatrix in="SourceAlpha" type="matrix" values="0 0 0 0 0 0 0 0 0 0 0 0 0 0 0 0 0 0 127 0" result="hardAlpha"/>
<feOffset dy="14"/>
<feGaussianBlur stdDeviation="9"/>
<feComposite in2="hardAlpha" operator="out"/>
<feColorMatrix type="matrix" values="0 0 0 0 0 0 0 0 0 0 0 0 0 0 0 0 0 0 0.25 0"/>
<feBlend mode="normal" in2="BackgroundImageFix" result="effect1_dropShadow_1_18"/>
<feBlend mode="normal" in="SourceGraphic" in2="effect1_dropShadow_1_18" result="shape"/>
</filter>
<filter id="filter1_f_1_18" x="-868" y="301" width="2000" height="2000" filterUnits="userSpaceOnUse" color-interpolation-filters="sRGB">
<feFlood flood-opacity="0" result="BackgroundImageFix"/>
<feBlend mode="normal" in="SourceGraphic" in2="BackgroundImageFix" result="shape"/>
<feGaussianBlur stdDeviation="300" result="effect1_foregroundBlur_1_18"/>
</filter>
<filter id="filter2_f_1_18" x="-104" y="301" width="2000" height="2000" filterUnits="userSpaceOnUse" color-interpolation-filters="sRGB">
<feFlood flood-opacity="0" result="BackgroundImageFix"/>
<feBlend mode="normal" in="SourceGraphic" in2="BackgroundImageFix" result="shape"/>
<feGaussianBlur stdDeviation="300" result="effect1_foregroundBlur_1_18"/>
</filter>
</defs>
</svg>
