<svg width="3210" height="1410" viewBox="0 0 3210 1410" fill="none" xmlns="http://www.w3.org/2000/svg">
<g filter="url(#filter0_d_1_18)">
<rect x="100" y="291" width="828" height="828" rx="180" fill="white"/>
</g>
<mask id="mask0_1_18" style="mask-type:alpha" maskUnits="userSpaceOnUse" x="100" y="291" width="828" height="828">
<rect x="100" y="291" width="828" height="828" rx="180" fill="white"/>
</mask>
<g mask="url(#mask0_1_18)">
<g opacity="0.5" filter="url(#filter1_f_1_18)">
<circle cx="132" cy="1301" r="400" fill="#FF61FC"/>
</g>
</g>
<mask id="mask1_1_18" style="mask-type:alpha" maskUnits="userSpaceOnUse" x="100" y="291" width="828" height="828">
<rect x="100" y="291" width="828" height="828" rx="180" fill="white"/>
</mask>
<g mask="url(#mask1_1_18)">
<g opacity="0.6" filter="url(#filter2_f_1_18)">
<circle cx="896" cy="1301" r="400" fill="#1785FF"/>
</g>
</g>
<path d="M351.56 649.98C351.56 636.957 341.003 626.4 327.98 626.4C314.957 626.4 304.4 636.957 304.4 649.98V760.02C304.4 773.043 314.957 783.6 327.98 783.6C341.003 783.6 351.56 773.043 351.56 760.02V649.98Z" fill="#273A44"/>
<path d="M430.16 597.58C430.16 584.557 419.603 574 406.58 574C393.557 574 383 584.557 383 597.58V812.42C383 825.443 393.557 836 406.58 836C419.603 836 430.16 825.443 430.16 812.42V597.58Z" fill="#273A44"/>
<path d="M508.76 518.98C508.76 505.957 498.203 495.4 485.18 495.4C472.157 495.4 461.6 505.957 461.6 518.98V891.02C461.6 904.043 472.157 914.6 485.18 914.6C498.203 914.6 508.76 904.043 508.76 891.02V518.98Z" fill="#273A44"/>
<path d="M587.36 571.38C587.36 558.357 576.803 547.8 563.78 547.8C550.757 547.8 540.2 558.357 540.2 571.38V838.62C540.2 851.643 550.757 862.2 563.78 862.2C576.803 862.2 587.36 851.643 587.36 838.62V571.38Z" fill="#273A44"/>
<path d="M665.96 649.98C665.96 636.957 655.403 626.4 642.38 626.4C629.357 626.4 618.8 636.957 618.8 649.98V760.02C618.8 773.043 629.357 783.6 642.38 783.6C655.403 783.6 665.96 773.043 665.96 760.02V649.98Z" fill="#273A44"/>
<path d="M744.56 597.58C744.56 584.557 734.003 574 720.98 574C707.957 574 697.4 584.557 697.4 597.58V812.42C697.4 825.443 707.957 836 720.98 836C734.003 836 744.56 825.443 744.56 812.42V597.58Z" fill="#273A44"/>
<path d="M1179.4 877.56C1154.47 877.56 1133.19 873 1115.56 863.88C1097.93 854.76 1082.27 841.536 1068.59 824.208L1097.78 795.024C1107.81 809.008 1119.36 819.648 1132.43 826.944C1145.5 833.936 1161.62 837.432 1180.77 837.432C1199.62 837.432 1214.66 833.328 1225.91 825.12C1237.46 816.912 1243.24 805.664 1243.24 791.376C1243.24 779.52 1240.5 769.944 1235.03 762.648C1229.56 755.352 1222.11 749.424 1212.69 744.864C1203.57 740 1193.54 735.744 1182.59 732.096C1171.65 728.144 1160.7 724.04 1149.76 719.784C1138.82 715.224 1128.78 709.752 1119.66 703.368C1110.54 696.68 1103.1 688.016 1097.32 677.376C1091.85 666.736 1089.11 653.36 1089.11 637.248C1089.11 619.312 1093.37 604.112 1101.88 591.648C1110.7 578.88 1122.55 569.152 1137.45 562.464C1152.65 555.472 1169.67 551.976 1188.52 551.976C1209.19 551.976 1227.74 556.08 1244.15 564.288C1260.57 572.192 1273.94 582.68 1284.28 595.752L1255.1 624.936C1245.67 613.992 1235.49 605.784 1224.54 600.312C1213.9 594.84 1201.59 592.104 1187.61 592.104C1170.58 592.104 1157.06 595.904 1147.02 603.504C1136.99 610.8 1131.98 621.136 1131.98 634.512C1131.98 645.152 1134.71 653.816 1140.18 660.504C1145.96 666.888 1153.41 672.36 1162.53 676.92C1171.65 681.48 1181.68 685.736 1192.62 689.688C1203.87 693.336 1214.97 697.44 1225.91 702C1236.86 706.56 1246.89 712.336 1256.01 719.328C1265.13 726.32 1272.42 735.44 1277.9 746.688C1283.67 757.632 1286.56 771.464 1286.56 788.184C1286.56 816.152 1276.83 838.04 1257.38 853.848C1238.22 869.656 1212.23 877.56 1179.4 877.56ZM1374.88 873V565.656H1415.92V873H1374.88ZM1321.53 693.792V656.4H1469.27V693.792H1321.53ZM1599.47 877.56C1579.71 877.56 1561.77 872.696 1545.66 862.968C1529.55 852.936 1516.78 839.408 1507.36 822.384C1498.24 805.36 1493.68 786.208 1493.68 764.928C1493.68 743.648 1498.24 724.496 1507.36 707.472C1516.78 690.448 1529.4 676.92 1545.2 666.888C1561.32 656.856 1579.4 651.84 1599.47 651.84C1615.88 651.84 1630.48 655.336 1643.24 662.328C1656.32 669.016 1666.8 678.44 1674.71 690.6C1682.61 702.456 1687.02 716.288 1687.93 732.096V797.304C1687.02 812.808 1682.61 826.64 1674.71 838.8C1667.11 850.96 1656.77 860.536 1643.7 867.528C1630.93 874.216 1616.19 877.56 1599.47 877.56ZM1606.31 838.8C1626.68 838.8 1643.09 831.96 1655.56 818.28C1668.02 804.296 1674.25 786.512 1674.25 764.928C1674.25 750.032 1671.36 737.112 1665.59 726.168C1660.12 714.92 1652.21 706.256 1641.88 700.176C1631.54 693.792 1619.53 690.6 1605.85 690.6C1592.17 690.6 1580.01 693.792 1569.37 700.176C1559.04 706.56 1550.83 715.376 1544.75 726.624C1538.97 737.568 1536.08 750.184 1536.08 764.472C1536.08 779.064 1538.97 791.984 1544.75 803.232C1550.83 814.176 1559.19 822.84 1569.83 829.224C1580.47 835.608 1592.63 838.8 1606.31 838.8ZM1671.52 873V814.632L1679.27 761.736L1671.52 709.296V656.4H1713.01V873H1671.52ZM1867.15 968.304C1844.96 968.304 1825.2 964.2 1807.87 955.992C1790.85 947.784 1777.17 936.232 1766.83 921.336L1793.28 894.432C1802.1 905.68 1812.59 914.192 1824.75 919.968C1836.91 926.048 1851.35 929.088 1868.07 929.088C1890.26 929.088 1907.74 923.16 1920.51 911.304C1933.58 899.752 1940.11 884.096 1940.11 864.336V810.528L1947.41 761.736L1940.11 713.4V656.4H1981.15V864.336C1981.15 885.008 1976.29 903.096 1966.56 918.6C1957.14 934.104 1943.76 946.264 1926.43 955.08C1909.41 963.896 1889.65 968.304 1867.15 968.304ZM1867.15 869.352C1847.39 869.352 1829.61 864.64 1813.8 855.216C1798.3 845.792 1785.99 832.872 1776.87 816.456C1767.75 799.736 1763.19 781.04 1763.19 760.368C1763.19 739.696 1767.75 721.304 1776.87 705.192C1785.99 688.776 1798.3 675.856 1813.8 666.432C1829.61 656.704 1847.39 651.84 1867.15 651.84C1884.18 651.84 1899.23 655.184 1912.3 661.872C1925.37 668.56 1935.71 677.984 1943.31 690.144C1951.21 702 1955.47 715.984 1956.07 732.096V789.552C1955.16 805.36 1950.75 819.344 1942.85 831.504C1935.25 843.36 1924.91 852.632 1911.84 859.32C1898.77 866.008 1883.87 869.352 1867.15 869.352ZM1875.36 830.592C1888.74 830.592 1900.44 827.704 1910.47 821.928C1920.81 816.152 1928.71 808.096 1934.19 797.76C1939.66 787.12 1942.39 774.808 1942.39 760.824C1942.39 746.84 1939.51 734.68 1933.73 724.344C1928.26 713.704 1920.51 705.496 1910.47 699.72C1900.44 693.64 1888.59 690.6 1874.91 690.6C1861.23 690.6 1849.22 693.64 1838.88 699.72C1828.55 705.496 1820.34 713.704 1814.26 724.344C1808.48 734.68 1805.59 746.688 1805.59 760.368C1805.59 774.048 1808.48 786.208 1814.26 796.848C1820.34 807.488 1828.55 815.848 1838.88 821.928C1849.52 827.704 1861.68 830.592 1875.36 830.592ZM2146.27 877.56C2124.69 877.56 2105.23 872.696 2087.91 862.968C2070.58 852.936 2056.9 839.408 2046.87 822.384C2036.83 805.36 2031.82 786.056 2031.82 764.472C2031.82 743.192 2036.68 724.04 2046.41 707.016C2056.44 689.992 2069.82 676.616 2086.54 666.888C2103.56 656.856 2122.56 651.84 2143.54 651.84C2163.6 651.84 2181.23 656.4 2196.43 665.52C2211.94 674.64 2223.95 687.256 2232.46 703.368C2241.27 719.48 2245.68 737.72 2245.68 758.088C2245.68 761.128 2245.53 764.472 2245.23 768.12C2244.92 771.464 2244.31 775.416 2243.4 779.976H2060.55V745.776H2221.51L2206.47 759C2206.47 744.408 2203.88 732.096 2198.71 722.064C2193.55 711.728 2186.25 703.824 2176.83 698.352C2167.4 692.576 2156 689.688 2142.63 689.688C2128.64 689.688 2116.33 692.728 2105.69 698.808C2095.05 704.888 2086.84 713.4 2081.07 724.344C2075.29 735.288 2072.4 748.208 2072.4 763.104C2072.4 778.304 2075.44 791.68 2081.52 803.232C2087.6 814.48 2096.27 823.296 2107.51 829.68C2118.76 835.76 2131.68 838.8 2146.27 838.8C2158.43 838.8 2169.53 836.672 2179.56 832.416C2189.9 828.16 2198.71 821.776 2206.01 813.264L2232.46 840.168C2222.12 852.328 2209.35 861.6 2194.15 867.984C2179.26 874.368 2163.3 877.56 2146.27 877.56ZM2302.29 873V556.536H2345.15V873H2302.29ZM2331.47 873V833.784H2501.1V873H2331.47ZM2551.61 873V656.4H2592.65V873H2551.61ZM2572.13 613.08C2564.53 613.08 2558.3 610.648 2553.43 605.784C2548.57 600.616 2546.14 594.232 2546.14 586.632C2546.14 579.336 2548.57 573.256 2553.43 568.392C2558.3 563.224 2564.53 560.64 2572.13 560.64C2579.73 560.64 2585.96 563.224 2590.82 568.392C2595.69 573.256 2598.12 579.336 2598.12 586.632C2598.12 594.232 2595.69 600.616 2590.82 605.784C2585.96 610.648 2579.73 613.08 2572.13 613.08ZM2810.9 873V746.688C2810.9 730.272 2805.74 716.744 2795.4 706.104C2785.06 695.464 2771.69 690.144 2755.27 690.144C2744.33 690.144 2734.6 692.576 2726.09 697.44C2717.58 702.304 2710.89 708.992 2706.02 717.504C2701.16 726.016 2698.73 735.744 2698.73 746.688L2681.86 737.112C2681.86 720.696 2685.5 706.104 2692.8 693.336C2700.1 680.568 2710.28 670.536 2723.35 663.24C2736.42 655.64 2751.17 651.84 2767.58 651.84C2784 651.84 2798.44 655.944 2810.9 664.152C2823.67 672.36 2833.7 683.152 2841 696.528C2848.3 709.6 2851.94 723.584 2851.94 738.48V873H2810.9ZM2657.69 873V656.4H2698.73V873H2657.69ZM3050.69 873L2949.46 762.192L3049.78 656.4H3099.48L2987.76 773.136L2989.59 749.424L3103.59 873H3050.69ZM2912.07 873V547.416H2953.11V873H2912.07Z" fill="white"/>
<defs>
<filter id="filter0_d_1_18" x="82" y="287" width="864" height="864" filterUnits="userSpaceOnUse" color-interpolation-filters="sRGB">
<feFlood flood-opacity="0" result="BackgroundImageFix"/>
<feColorMatrix in="SourceAlpha" type="matrix" values="0 0 0 0 0 0 0 0 0 0 0 0 0 0 0 0 0 0 127 0" result="hardAlpha"/>
<feOffset dy="14"/>
<feGaussianBlur stdDeviation="9"/>
<feComposite in2="hardAlpha" operator="out"/>
<feColorMatrix type="matrix" values="0 0 0 0 0 0 0 0 0 0 0 0 0 0 0 0 0 0 0.25 0"/>
<feBlend mode="normal" in2="BackgroundImageFix" result="effect1_dropShadow_1_18"/>
<feBlend mode="normal" in="SourceGraphic" in2="effect1_dropShadow_1_18" result="shape"/>
</filter>
<filter id="filter1_f_1_18" x="-868" y="301" width="2000" height="2000" filterUnits="userSpaceOnUse" color-interpolation-filters="sRGB">
<feFlood flood-opacity="0" result="BackgroundImageFix"/>
<feBlend mode="normal" in="SourceGraphic" in2="BackgroundImageFix" result="shape"/>
<feGaussianBlur stdDeviation="300" result="effect1_foregroundBlur_1_18"/>
</filter>
<filter id="filter2_f_1_18" x="-104" y="301" width="2000" height="2000" filterUnits="userSpaceOnUse" color-interpolation-filters="sRGB">
<feFlood flood-opacity="0" result="BackgroundImageFix"/>
<feBlend mode="normal" in="SourceGraphic" in2="BackgroundImageFix" result="shape"/>
<feGaussianBlur stdDeviation="300" result="effect1_foregroundBlur_1_18"/>
</filter>
</defs>
</svg>
